# xmcd
#
# Track frame offsets:
#	150
#	17037
#	36687
#	48505
#	63362
#	83422
#	99922
#	117350
#	135335
#	147552
#	159760
#	176395
#	189570
#	202012
#	214172
#	228997
#	244877
#	257472
#	271950
#	283000
#	300570
#
# Disc length: 4194
#
# Revision: 4
# Processed by: cddbd v1.5.1PL0 Copyright (c) Steve Scherf et al.
# Submitted via: CDex 1.40Release
# Normalized: r2:TSWAP
#
DISCID=25106015
DTITLE=Various Artist - Summer Country
DYEAR=2002
DGENRE=Country
TTITLE0=Shania Twain - From This Moment
TTITLE1=The Mavericks - Dance The Night Away
TTITLE2=Dolly Parton - Jolene
TTITLE3=LeAnn Rimes - But Do I Love You
TTITLE4=Lonestar - Amazed
TTITLE5=Keith Whitley - When You Say Nothing At All
TTITLE6=Allison Moorer - A Soft Place To Fall
TTITLE7=Billy Swan - I Can Help
TTITLE8=Charlie Rich - The Most Beautiful Girl
TTITLE9=Crystal Gayle - Don't It Make My Brown Eyes Blue
TTITLE10=Don Mclean - Castles In The Air
TTITLE11=Lynn Anderson - Rose Garden
TTITLE12=Roy Orbison - Crying
TTITLE13=Johnny Cash - I Walk The Line
TTITLE14=Kenny Rogers - Crazy
TTITLE15=Willie Nelson - Always On My Mind
TTITLE16=Don Williams - You're My Best Friend
TTITLE17=Bellamy Brothers - If I Said You Had A Beautiful Body
TTITLE18=Charley Pride - Help Me Make It Through The Night
TTITLE19=The Judds - Love Can Build A Bridge
TTITLE20=Elvis Costello - Good Year For The Roses
EXTD=YEAR: 2002 ID3G: 2
EXTT0=
EXTT1=
EXTT2=
EXTT3=
EXTT4=
EXTT5=
EXTT6=
EXTT7=
EXTT8=
EXTT9=
EXTT10=
EXTT11=
EXTT12=
EXTT13=
EXTT14=
EXTT15=
EXTT16=
EXTT17=
EXTT18=
EXTT19=
EXTT20=
PLAYORDER=
